Coordinates
version=1
nRows=14
nColumns=40
inDegrees=yes

Units are S.I. units (second, meters, Newtons, ...)
Angles are in degrees.

endheader
time	pelvis_tilt	pelvis_list	pelvis_rotation	pelvis_tx	pelvis_ty	pelvis_tz	hip_flexion_r	hip_adduction_r	hip_rotation_r	knee_angle_r	knee_angle_r_beta	ankle_angle_r	subtalar_angle_r	mtp_angle_r	hip_flexion_l	hip_adduction_l	hip_rotation_l	knee_angle_l	knee_angle_l_beta	ankle_angle_l	subtalar_angle_l	mtp_angle_l	lumbar_extension	lumbar_bending	lumbar_rotation	arm_flex_r	arm_add_r	arm_rot_r	elbow_flex_r	pro_sup_r	wrist_flex_r	wrist_dev_r	arm_flex_l	arm_add_l	arm_rot_l	elbow_flex_l	pro_sup_l	wrist_flex_l	wrist_dev_l
      8.67000000	     -1.39145961	     -5.80540728	     -5.90277160	      1.04407100	      0.92908492	      0.57718796	     10.87845098	      6.75874430	     -9.60550361	     20.43763888	     20.43763888	     12.42806904	     -4.53478929	     -3.29037154	     20.77726332	    -15.68929068	     -3.32396441	     60.80383712	     60.80383712	     15.60481393	    -19.55661477	     22.65824636	    -10.50773617	      7.54091674	      0.79277633	      5.32986761	    -18.02807519	    -13.38454075	     32.59829139	     46.16506054	      0.00000000	      0.00000000	     14.05461674	    -10.69134844	    -11.39564282	     64.13257292	     46.61845172	      0.00000000	      0.00000000
      8.68892857	     -0.97432767	     -5.65738920	     -5.31819977	      1.04266606	      0.92766745	      0.57831962	     10.87730793	      6.57324523	     -9.55056220	     21.82148041	     21.82148041	     13.19436924	     -5.72803072	     -3.60810104	     21.59695439	    -15.40445819	     -2.97936915	     59.81544913	     59.81544913	     16.26962479	    -19.56851471	     22.57332691	    -10.87743640	      7.17927777	      0.35437177	      7.70926421	    -17.36217914	    -13.35612387	     33.91732812	     46.12525320	      0.00000000	      0.00000000	     12.11973935	    -10.29244700	    -10.85788904	     61.62048749	     46.53886498	      0.00000000	      0.00000000
      8.70785714	     -0.72217989	     -5.54606399	     -4.64656766	      1.04110333	      0.92606504	      0.57942596	     10.99339260	      6.52250851	     -9.34079600	     23.07824419	     23.07824419	     14.03991044	     -7.27775138	     -3.05235795	     22.61829653	    -15.07764349	     -2.47585576	     58.68376757	     58.68376757	     16.94937297	    -19.58437587	     22.89138953	    -10.92599499	      6.93161243	      0.38557600	      9.54096362	    -16.84680355	    -12.84108950	     35.58660236	     46.03565228	      0.00000000	      0.00000000	     11.92231099	     -9.66098506	     -9.66499674	     54.78426788	     46.43085577	      0.00000000	      0.00000000
      8.72678571	     -0.42877361	     -5.41201945	     -3.97076185	      1.03948286	      0.92441690	      0.58038159	     11.05046897	      6.39378507	     -9.33494355	     24.31292537	     24.31292537	     14.78038621	     -8.47244047	     -3.04073471	     23.51474123	    -14.72328887	     -2.10150680	     57.37828497	     57.37828497	     17.42373195	    -19.58965821	     22.88560730	    -11.12909772	      6.62514704	     -0.29559915	     11.93873911	    -16.01113881	    -12.61967952	     37.48924645	     45.96070566	      0.00000000	      0.00000000	     10.29866600	     -9.42111074	     -8.92433362	     51.06098577	     46.33572827	      0.00000000	      0.00000000
      8.74571429	     -0.12306480	     -5.34557897	     -3.32057555	      1.03778522	      0.92295106	      0.58121817	     11.02556934	      6.34792026	     -9.36404664	     25.43919677	     25.43919677	     15.68572764	     -9.44919227	     -2.24432909	     24.29180382	    -14.40895544	     -1.76583702	     55.90408864	     55.90408864	     17.83285403	    -19.59391671	     22.93867825	    -11.34407687	      6.43248873	      0.28728357	     13.30353263	    -15.93177593	    -11.76268876	     39.84919418	     45.82848372	      0.00000000	      0.00000000	     10.66652288	     -8.64107716	     -7.42954581	     44.06148634	     46.20547699	      0.00000000	      0.00000000
      8.76464286	      0.15631097	     -5.20249671	     -2.69038213	      1.03600955	      0.92155512	      0.58181229	     10.95338099	      6.19680297	     -9.45488908	     26.39208975	     26.39208975	     16.29324659	    -10.34341030	     -2.33177349	     25.00986333	    -14.01201330	     -1.56725638	     54.30920374	     54.30920374	     18.07700712	    -19.58721288	     22.92304450	    -11.62578612	      6.14859649	     -0.19045936	     15.73353624	    -15.18319389	    -11.65329977	     41.64413506	     45.76745829	      0.00000000	      0.00000000	      8.87003416	     -8.35234872	     -6.94307420	     41.63354081	     46.12646878	      0.00000000	      0.00000000
      8.78357143	      0.26423293	     -5.19066689	     -1.94242058	      1.03413556	      0.92030592	      0.58223157	     10.89446824	      6.21486745	     -9.68255590	     26.97954848	     26.97954848	     16.76473739	    -11.12708111	     -2.08892525	     25.88016302	    -13.64663297	     -1.11698431	     52.60118228	     52.60118228	     18.10653681	    -19.58225869	     22.78181528	    -11.64204410	      6.01663349	     -0.79993489	     17.97786095	    -14.32104421	    -11.22218589	     43.72832939	     45.67866159	      0.00000000	      0.00000000	      7.57244220	     -8.13942147	     -6.16839469	     37.76558901	     46.01649820	      0.00000000	      0.00000000
      8.80250000	      0.35501371	     -5.18778736	     -1.29894623	      1.03225249	      0.91943061	      0.58246580	     10.74817649	      6.21608355	     -9.95912999	     27.40979982	     27.40979982	     17.52294286	    -11.44068045	     -1.05559832	     26.63010679	    -13.31616443	     -0.81387179	     50.79256701	     50.79256701	     17.91711521	    -19.56003901	     22.31266691	    -11.69357707	      5.88578763	      0.21683810	     18.64140850	    -14.81319885	    -10.20308226	     47.50486529	     45.50655837	      0.00000000	      0.00000000	      8.03675303	     -7.45496470	     -4.05374452	     31.62199816	     45.79349231	      0.00000000	      0.00000000
      8.82142857	      0.34348565	     -5.17993653	     -0.67234612	      1.03035570	      0.91888153	      0.58242863	     10.54518200	      6.20849886	    -10.29541196	     27.47777828	     27.47777828	     17.76619418	    -11.77455715	     -1.07543957	     27.38972458	    -12.91547398	     -0.43457047	     48.91881533	     48.91881533	     17.80237156	    -19.52610984	     22.43405894	    -11.63456947	      5.73811613	      0.76310098	     20.57409869	    -14.86093447	    -10.23268780	     48.56808745	     45.48026472	      0.00000000	      0.00000000	      6.46016266	     -6.96907005	     -3.88151094	     30.67292529	     45.74546660	      0.00000000	      0.00000000
      8.84035714	      0.34146669	     -5.13059785	      0.01622188	      1.02850915	      0.91876827	      0.58217006	     10.19403753	      6.15018247	    -10.71275788	     27.29961706	     27.29961706	     17.99795315	    -11.95151835	     -0.99080546	     28.00562143	    -12.43146108	      0.00006932	     46.92897535	     46.92897535	     17.30088959	    -19.47850218	     21.71066159	    -11.61772214	      5.57298127	     -0.30027234	     22.94019319	    -13.70278299	     -9.68254411	     51.51441936	     45.36341089	      0.00000000	      0.00000000	      4.67641001	     -7.11330071	     -3.17437717	     27.96217280	     45.62333476	      0.00000000	      0.00000000
      8.85928571	      0.27095723	     -5.03116849	      0.60741226	      1.02676948	      0.91912555	      0.58164403	      9.73781724	      6.02540199	    -11.15485631	     26.80182952	     26.80182952	     18.09664171	    -11.86984249	     -0.94055844	     28.45481323	    -11.89260272	      0.40621366	     44.73816588	     44.73816588	     16.39913012	    -19.41498389	     20.09197434	    -11.53799815	      5.37874662	      0.28376059	     23.97990144	    -14.16260237	     -8.41780462	     55.43272024	     45.19377759	      0.00000000	      0.00000000	      3.56653074	     -6.93903414	     -1.67660037	     25.67726616	     45.38861662	      0.00000000	      0.00000000
      8.87821429	      0.15045388	     -4.94390954	      1.17479331	      1.02512772	      0.91985840	      0.58092852	      9.17288744	      5.94153513	    -11.58159173	     26.01284727	     26.01284727	     18.13218207	    -11.69200845	     -0.87860741	     28.86243663	    -11.31130782	      0.99508085	     42.59807553	     42.59807553	     15.96142033	    -19.31194012	     19.92285829	    -11.38332693	      5.16068674	      0.22475753	     25.96001761	    -13.77999836	     -8.34634309	     57.50068919	     45.13250795	      0.00000000	      0.00000000	      1.72725361	     -6.90948283	     -1.35861725	     24.82745667	     45.30729008	      0.00000000	      0.00000000
      8.89714286	     -0.02961724	     -4.85217573	      1.69693227	      1.02362686	      0.92075569	      0.58000159	      8.54862973	      5.83158786	    -12.09409996	     25.00938343	     25.00938343	     17.95634053	    -11.32141254	     -1.28673415	     29.10008678	    -10.78603739	      1.51916031	     40.26312741	     40.26312741	     14.75899192	    -19.17101408	     17.73488820	    -11.21556449	      4.95610929	      0.71836099	     26.99739683	    -14.27271888	     -7.50240241	     61.65787612	     44.99486098	      0.00000000	      0.00000000	     -0.18169984	     -7.04489701	      0.06376118	     24.98663225	     45.04581050	      0.00000000	      0.00000000
      8.91607143	     -0.25276632	     -4.72135730	      2.20745397	      1.02224558	      0.92179177	      0.57883075	      7.90968091	      5.65198310	    -12.71886721	     23.93302888	     23.93302888	     17.80902936	    -10.70332430	     -1.58090151	     29.24790644	    -10.19996180	      2.16542331	     37.96698839	     37.96698839	     13.87012600	    -18.95424060	     16.43112786	    -10.96810157	      4.70572191	      0.88956911	     28.54043991	    -14.35917136	     -7.09340909	     64.74157048	     44.90778697	      0.00000000	      0.00000000	     -2.16258894	     -7.22264980	      0.89216912	     25.16002501	     44.88834545	      0.00000000	      0.00000000
